<svg width="115" height="65" viewBox="0 0 115 65" fill="none" xmlns="http://www.w3.org/2000/svg">
<g clip-path="url(#clip0_2080_1491)">
<path d="M57.5 31C49.23 31 42.5 24.27 42.5 16C42.5 7.73 49.23 1 57.5 1C65.77 1 72.5 7.73 72.5 16C72.5 24.27 65.77 31 57.5 31Z" stroke="#BCBCBC" stroke-width="2" stroke-linecap="round" stroke-linejoin="round"/>
<path d="M59 11C59 11.83 58.33 12.5 57.5 12.5C56.67 12.5 56 11.83 56 11C56 10.17 56.67 9.5 57.5 9.5C58.33 9.5 59 10.17 59 11Z" fill="#BCBCBC"/>
<path d="M57.5 16V22" stroke="#BCBCBC" stroke-width="2" stroke-linecap="round" stroke-linejoin="round"/>
</g>
<path d="M15.3756 49.8164V62.2852H13.6119V49.8164H15.3756ZM5.32676 55.1211C5.31992 52.4072 6.70762 50.6914 8.62168 50.6914C10.4947 50.6914 11.8893 52.4072 11.8893 55.1211C11.8893 57.8555 10.4947 59.5645 8.62168 59.5645C6.70762 59.5645 5.31992 57.8555 5.32676 55.1211ZM7.0084 55.1211C7.00156 56.9736 7.65098 57.9854 8.62168 57.9785C9.56504 57.9854 10.2008 56.9736 10.2076 55.1211C10.2008 53.2754 9.56504 52.2637 8.62168 52.2637C7.65098 52.2637 7.00156 53.2754 7.0084 55.1211ZM22.9881 50.9375V59.291H16.9725V50.9375H22.9881ZM18.7225 57.9102H21.2928V52.3047H18.7225V57.9102ZM25.0115 62.2852V49.8164H26.7752V62.2852H25.0115ZM32.583 53.207C32.5762 55.2168 33.6152 57.3701 35.7002 58.2383L34.7568 59.6055C33.2939 58.9834 32.2822 57.7461 31.7217 56.2422C31.1611 57.876 30.1289 59.2432 28.6592 59.9199L27.6611 58.5391C29.7256 57.6162 30.792 55.3125 30.792 53.207V52.4414H28.1533V51.0195H35.1807V52.4414H32.583V53.207ZM36.4111 62.2578V49.8164H38.1748V62.2578H36.4111ZM50.5314 55.3945V56.6934H39.1428V55.3945H50.5314ZM40.4416 58.5117V57.3086H49.1643V60.248H42.1916V60.959H49.5334V62.1484H40.4553V59.1406H47.4416V58.5117H40.4416ZM40.5373 51.2246V50.0352H49.1506V52.9609H42.301V53.6309H49.3693V54.8066H40.5647V51.8535H47.4006V51.2246H40.5373ZM64.4576 55.5039V56.9258H53.0826V55.5039H64.4576ZM54.3814 59.9609C54.3814 58.498 56.0221 57.6709 58.7428 57.6777C61.443 57.6709 63.0631 58.498 63.0768 59.9609C63.0631 61.4307 61.443 62.2646 58.7428 62.2578C56.0221 62.2646 54.3814 61.4307 54.3814 59.9609ZM54.4635 54.6289V50.1445H63.0904V51.5527H56.1998V53.248H63.1588V54.6289H54.4635ZM56.1588 59.9609C56.152 60.6172 57.0201 60.9316 58.7428 60.9316C60.4313 60.9316 61.3199 60.6172 61.3268 59.9609C61.3199 59.332 60.4313 59.0039 58.7428 59.0039C57.0201 59.0039 56.152 59.332 56.1588 59.9609ZM75.8572 56.4883V57.8828H64.4686V56.4883H69.2947V55.5859H65.8904V52.168H72.7264V51.4023H65.8631V50.0488H74.4764V53.4258H67.6268V54.2461H74.7088V55.5859H71.0311V56.4883H75.8572ZM65.74 59.9609V58.5938H74.5447V62.2031H72.7811V59.9609H65.74ZM85.6982 49.8164V54.6836H87.5303V56.1191H85.6982V62.2578H83.9756V49.8164H85.6982ZM75.8135 53.0703V51.6758H78.6299V50.0078H80.3799V51.6758H83.1279V53.0703H75.8135ZM76.3193 56.7344C76.3125 54.998 77.666 53.7607 79.5049 53.7676C81.3164 53.7607 82.6768 54.998 82.6768 56.7344C82.6768 58.4707 81.3164 59.6943 79.5049 59.7012C77.666 59.6943 76.3125 58.4707 76.3193 56.7344ZM77.9873 56.7344C77.9873 57.6982 78.623 58.2725 79.5049 58.2656C80.373 58.2725 81.0088 57.6982 81.0088 56.7344C81.0088 55.7773 80.373 55.1895 79.5049 55.1758C78.623 55.1895 77.9873 55.7773 77.9873 56.7344ZM91.2736 52.9473C91.2668 54.9639 91.8273 57.042 93.5295 58.1289L92.5861 59.4824C91.5061 58.833 90.8293 57.7529 90.4328 56.4814C89.9885 57.8896 89.2434 59.0723 88.1154 59.7559L87.049 58.4707C88.8947 57.3291 89.5783 55.1348 89.5783 53.0293V50.8828H91.2736V52.9473ZM92.217 55.4355V54.0137H93.8303V49.9941H95.4572V61.6836H93.8303V55.4355H92.217ZM96.4006 62.2578V49.8164H98.0686V62.2578H96.4006ZM110.07 59.373V60.8086H98.6811V59.373H101.224V56.3242C100.26 55.7432 99.6791 54.8613 99.6791 53.7676C99.6791 51.751 101.648 50.4248 104.355 50.418C107.048 50.4248 109.037 51.751 109.044 53.7676C109.037 54.8408 108.477 55.709 107.54 56.29V59.373H110.07ZM101.402 53.7676C101.402 54.9844 102.571 55.7363 104.355 55.7363C106.112 55.7363 107.315 54.9844 107.322 53.7676C107.315 52.5166 106.112 51.792 104.355 51.7988C102.571 51.792 101.402 52.5166 101.402 53.7676ZM102.947 59.373H105.777V56.9531C105.332 57.042 104.854 57.0898 104.355 57.0898C103.856 57.0898 103.384 57.042 102.947 56.96V59.373Z" fill="#666666"/>
<defs>
<clipPath id="clip0_2080_1491">
<rect width="32" height="32" fill="white" transform="translate(41.5)"/>
</clipPath>
</defs>
</svg>
